<svg t="1726395805786" class="icon" viewBox="0 0 1024 1024" version="1.1" xmlns="http://www.w3.org/2000/svg" p-id="2036" width="200" height="200"><path d="M597.333333 810.666667m-42.666666 0a42.666667 42.666667 0 1 0 85.333333 0 42.666667 42.666667 0 1 0-85.333333 0Z" p-id="2037" fill="#f373b2"></path><path d="M887.466667 448c0-204.8-166.4-375.466667-375.466667-375.466667-204.8 0-375.466667 166.4-375.466667 375.466667 0 106.666667 46.933333 213.333333 128 281.6v145.066667c0 42.666667 34.133333 76.8 76.8 76.8h341.333334c42.666667 0 76.8-34.133333 76.8-76.8v-128-17.066667c76.8-68.266667 128-174.933333 128-281.6zM512 136.533333c170.666667 0 307.2 140.8 307.2 307.2 0 46.933333-8.533333 89.6-29.866667 128-8.533333-51.2-55.466667-89.6-110.933333-89.6-12.8 0-25.6 4.266667-38.4 8.533334 12.8-17.066667 21.333333-42.666667 21.333333-64 0-59.733333-51.2-110.933333-110.933333-110.933334s-110.933333 51.2-110.933333 110.933334c0 21.333333 8.533333 42.666667 17.066666 59.733333-17.066667 0-34.133333 8.533333-51.2 17.066667 0-59.733333-46.933333-102.4-106.666666-102.4-42.666667 0-76.8 21.333333-93.866667 55.466666v-8.533333c0-170.666667 136.533333-311.466667 307.2-311.466667zM298.666667 571.733333c-34.133333 0-59.733333-25.6-59.733334-59.733333s25.6-59.733333 59.733334-59.733333 59.733333 25.6 59.733333 59.733333-25.6 59.733333-59.733333 59.733333z m170.666666-34.133333c34.133333 0 59.733333 25.6 59.733334 59.733333s-25.6 59.733333-59.733334 59.733334-59.733333-25.6-59.733333-59.733334 25.6-59.733333 59.733333-59.733333z m153.6 59.733333c0-34.133333 25.6-59.733333 59.733334-59.733333s59.733333 25.6 59.733333 59.733333-25.6 59.733333-59.733333 59.733334-59.733333-25.6-59.733334-59.733334z m-46.933333-34.133333l-12.8-25.6c8.533333 0 21.333333-4.266667 29.866667-4.266667-8.533333 8.533333-12.8 21.333333-17.066667 29.866667z m-21.333333-76.8c-34.133333 0-59.733333-25.6-59.733334-59.733333s25.6-59.733333 59.733334-59.733334c34.133333 0 59.733333 25.6 59.733333 59.733334s-25.6 59.733333-59.733333 59.733333z m21.333333 145.066667c4.266667 17.066667 12.8 29.866667 25.6 42.666666H554.666667c8.533333-12.8 17.066667-29.866667 21.333333-42.666666z m-324.266667-17.066667c12.8 8.533333 29.866667 12.8 46.933334 12.8 21.333333 0 42.666667-8.533333 59.733333-17.066667 0 25.6 12.8 46.933333 29.866667 64H341.333333c-12.8 0-21.333333 4.266667-34.133333 8.533334-21.333333-21.333333-42.666667-46.933333-55.466667-68.266667z m439.466667 260.266667c0 4.266667-4.266667 8.533333-8.533333 8.533333H341.333333c-4.266667 0-8.533333-4.266667-8.533333-8.533333v-128c0-4.266667 4.266667-8.533333 8.533333-8.533334h341.333334c4.266667 0 8.533333 4.266667 8.533333 8.533334v128z" p-id="2038" fill="#f373b2"></path></svg>
